<svg id="Layer_1" data-name="Layer 1" xmlns="http://www.w3.org/2000/svg" viewBox="0 0 100 100"><path d="M76.64,21.5a13,13,0,0,0-3.32-.6H19.82c-2.6,0-4.67,1.12-6.85,3s-2.49,5.52-2.49,5.52v34.1c0,2.21-.1,4.32,2.21,6.82a10.4,10.4,0,0,0,2.63,2.05v-39a7.08,7.08,0,0,1,7.06-7.06H82.05a8.6,8.6,0,0,0-1.86-2.67A10.56,10.56,0,0,0,76.64,21.5Z" style="fill:none"/><path d="M26.8,44.6A2.45,2.45,0,1,0,29.24,47,2.45,2.45,0,0,0,26.8,44.6Z" style="fill:#dfdfdf"/><path d="M46.85,44.6A2.45,2.45,0,1,0,49.29,47,2.45,2.45,0,0,0,46.85,44.6Z" style="fill:#dfdfdf"/><path d="M87.1,26.43a10.72,10.72,0,0,1,.09,1.86V56.73S87.1,59.31,85,59.31s-2-2.58-2-2.58V29a13.38,13.38,0,0,0-.92-2.63H22.38a7.08,7.08,0,0,0-7.06,7.06v39a8.25,8.25,0,0,0,.85.41,12.54,12.54,0,0,0,3.37.81H75.33c.77,0,1.92.38,1.92,2.21s-2.11,1.92-2.11,1.92H17.39a9.28,9.28,0,0,1-1.93-.26,7.1,7.1,0,0,0,6.92,5.65H86.43a7.09,7.09,0,0,0,7.07-7.06V33.46A7.09,7.09,0,0,0,87.1,26.43Zm-60.3,27A6.36,6.36,0,1,1,33.15,47,6.36,6.36,0,0,1,26.8,53.4Zm20.05,0A6.36,6.36,0,1,1,53.2,47,6.35,6.35,0,0,1,46.85,53.4ZM67,53.4A6.36,6.36,0,1,1,73.33,47,6.36,6.36,0,0,1,67,53.4Z" style="fill:#dfdfdf"/><path d="M67,44.6A2.45,2.45,0,1,0,69.41,47,2.45,2.45,0,0,0,67,44.6Z" style="fill:#dfdfdf"/><path d="M75.14,77.78s2.11-.1,2.11-1.92-1.15-2.21-1.92-2.21H19.54a12.54,12.54,0,0,1-3.37-.81,8.25,8.25,0,0,1-.85-.41,10.4,10.4,0,0,1-2.63-2.05c-2.31-2.5-2.21-4.61-2.21-6.82V29.46s.31-3.59,2.49-5.52,4.25-3,6.85-3h53.5a13,13,0,0,1,3.32.6,10.56,10.56,0,0,1,3.55,2.23,8.6,8.6,0,0,1,1.86,2.67A13.38,13.38,0,0,1,83,29v27.7s-.18,2.58,2,2.58,2.24-2.58,2.24-2.58V28.29a10.72,10.72,0,0,0-.09-1.86,11.2,11.2,0,0,0-.67-2.76,10.25,10.25,0,0,0-2.35-3.38A11.13,11.13,0,0,0,75.61,17H16.92a10.56,10.56,0,0,0-5.68,2.06,9.36,9.36,0,0,0-3.66,4.53,10.45,10.45,0,0,0-.87,3V67.07A9.08,9.08,0,0,0,9,73.59a11.17,11.17,0,0,0,3.41,2.86,12.22,12.22,0,0,0,3,1.07,9.28,9.28,0,0,0,1.93.26Z" style="fill:#463d32"/><path d="M26.8,40.69A6.36,6.36,0,1,0,33.15,47,6.35,6.35,0,0,0,26.8,40.69Zm0,8.8A2.45,2.45,0,1,1,29.24,47,2.45,2.45,0,0,1,26.8,49.49Z" style="fill:#463d32"/><path d="M46.85,40.69A6.36,6.36,0,1,0,53.2,47,6.35,6.35,0,0,0,46.85,40.69Zm0,8.8A2.45,2.45,0,1,1,49.29,47,2.45,2.45,0,0,1,46.85,49.49Z" style="fill:#463d32"/><path d="M67,40.69A6.36,6.36,0,1,0,73.33,47,6.35,6.35,0,0,0,67,40.69Zm0,8.8A2.45,2.45,0,1,1,69.41,47,2.45,2.45,0,0,1,67,49.49Z" style="fill:#463d32"/></svg>