<svg xmlns="http://www.w3.org/2000/svg" viewBox="0 0 100 100"><g id="Layer_3" data-name="Layer 3"><path d="M69.28,39.91a2.63,2.63,0,0,0-2.63,2.63V55.39A2.3,2.3,0,0,1,66,57a2.35,2.35,0,0,1-1.78.74H37.72a5.29,5.29,0,0,1-2.19-.38,4.32,4.32,0,0,1-1-1.5L26,29.64a2.63,2.63,0,1,0-5,1.63l9.57,29.42a2.81,2.81,0,0,0,.22.5,2.65,2.65,0,0,0,2.51,1.86h36a2.63,2.63,0,0,0,2.63-2.63V42.54A2.63,2.63,0,0,0,69.28,39.91Z" style="fill:#fbf8f1"/><circle cx="37.78" cy="70.53" r="4.64" style="fill:#fbf8f1"/><circle cx="63.22" cy="70.53" r="4.64" style="fill:#fbf8f1"/><path d="M60.7,37.26H39.3a2.47,2.47,0,0,0-2.47,2.47V51.14a2.47,2.47,0,0,0,2.47,2.47H60.7a2.47,2.47,0,0,0,2.47-2.47V39.73A2.47,2.47,0,0,0,60.7,37.26ZM57.88,48.11a1,1,0,0,1-1,1H43.14a1,1,0,0,1-1-1V42.75a1,1,0,0,1,1-1H56.86a1,1,0,0,1,1,1Z" style="fill:#fbf8f1"/></g></svg>