<svg id="Layer_1" data-name="Layer 1" xmlns="http://www.w3.org/2000/svg" viewBox="0 0 100 100"><path d="M56.7,75.3a.6.6,0,0,1-.4-.1A.76.76,0,0,0,56.7,75.3Z" style="fill:none"/><path d="M58,75.4h0A10.39,10.39,0,0,0,68.4,65h0A10.39,10.39,0,0,1,58,75.4Z" style="fill:none"/><path d="M33.8,28.6c-2-2.7-3.3-4.3-3.3-4.3S11.9,46.8,11.9,57.1a20.09,20.09,0,0,0,7.9,15.8,21.47,21.47,0,0,1-3.3-11.5C16.5,52.8,27.4,37.1,33.8,28.6Z" style="fill:none"/><path d="M80.5,34.7a4.79,4.79,0,0,0-3.3-1.2,5,5,0,0,0-5,5A5,5,0,0,0,75,43h0A8.92,8.92,0,0,1,80.5,34.7Z" style="fill:none"/><path d="M16.5,61.3a21.47,21.47,0,0,0,3.3,11.5,17.55,17.55,0,0,0,10.7,3.7,18.29,18.29,0,0,0,14-6.5,15,15,0,0,1-1-5.2,14.67,14.67,0,0,1,4.9-10.9C46.1,46,38.3,34.7,33.8,28.6,27.4,37.1,16.5,52.8,16.5,61.3Z" style="fill:#bfcca0"/><path d="M56.8,50.3C50.7,37.8,38.3,22.8,38.3,22.8s-.7.8-1.8,2.2c5.3,7.2,12.7,18,15.7,26.4A14.09,14.09,0,0,1,56.8,50.3Z" style="fill:#bfcca0"/><path d="M47,74.2a23,23,0,0,1-16.5,7H29.2a21.72,21.72,0,0,0,9.2,2,21.21,21.21,0,0,0,13.9-5.1A13.82,13.82,0,0,1,47,74.2Z" style="fill:#bfcca0"/><path d="M47,74.2A14.62,14.62,0,0,1,44.5,70a18.29,18.29,0,0,1-14,6.5,17.55,17.55,0,0,1-10.7-3.7A19.94,19.94,0,0,1,11.9,57c0-10.3,18.6-32.8,18.6-32.8l3.3,4.3c4.5,6.1,12.3,17.4,14.6,25.3a16.67,16.67,0,0,1,3.8-2.5C49.2,43,41.8,32.2,36.5,25c-3.5-4.7-6.1-7.8-6.1-7.8S7.3,45.3,7.3,58A23.13,23.13,0,0,0,29.1,81.1h1.3A22.7,22.7,0,0,0,47,74.2Z" style="fill:#483c30"/><path d="M58.1,50.2a5.7,5.7,0,0,0-1.3.1,12.06,12.06,0,0,0-4.6,1.2A13.91,13.91,0,0,0,48.4,54a14.41,14.41,0,0,0-3.9,16.1A15.07,15.07,0,0,0,47,74.3a13.82,13.82,0,0,0,5.3,3.9,14.35,14.35,0,0,0,5.8,1.2,14.6,14.6,0,1,0,0-29.2ZM68.4,65A10.39,10.39,0,0,1,58,75.4H56.7a.6.6,0,0,1-.4-.1A10.37,10.37,0,0,1,58,54.7,10.31,10.31,0,0,1,68.4,65Z" style="fill:#483c30"/><path d="M85.2,34.1a10,10,0,0,1,1,4.2,9.13,9.13,0,0,1-9.1,9.1h-.8a8.66,8.66,0,0,0,7.6,4.3,8.75,8.75,0,0,0,8.8-8.8A8.93,8.93,0,0,0,85.2,34.1Z" style="fill:#bfcca0"/><path d="M82.2,38.4a5,5,0,0,0-1.7-3.7A8.88,8.88,0,0,0,75,42.9h0a5.45,5.45,0,0,0,2.2.5A5,5,0,0,0,82.2,38.4Z" style="fill:#bfcca0"/><path d="M86.2,38.3a10,10,0,0,0-1-4.2A9.12,9.12,0,0,0,68,38.3a9,9,0,0,0,8.2,9H77A9,9,0,0,0,86.2,38.3ZM75,42.9a4.9,4.9,0,0,1-2.8-4.5,5,5,0,0,1,5-5,5.32,5.32,0,0,1,3.3,1.2,5,5,0,0,1-3.3,8.7A4.13,4.13,0,0,1,75,42.9Z" style="fill:#483c30"/><path d="M58,54.6a10.37,10.37,0,0,0-1.7,20.6.6.6,0,0,1,.4.1H58A10.39,10.39,0,0,0,68.4,64.9h0A10.37,10.37,0,0,0,58,54.6Z" style="fill:#fcf9f4"/></svg>