<svg id="Layer_1" data-name="Layer 1" xmlns="http://www.w3.org/2000/svg" viewBox="0 0 100 100"><path d="M76.54,21.4a12.76,12.76,0,0,0-3.32-.61H19.71c-2.59,0-4.66,1.12-6.84,3.05s-2.5,5.52-2.5,5.52V63.45c0,2.21-.09,4.33,2.21,6.83a10.4,10.4,0,0,0,2.64,2v-39a7.07,7.07,0,0,1,7.06-7.06H82a8.52,8.52,0,0,0-1.87-2.67A10.27,10.27,0,0,0,76.54,21.4Z" style="fill:none"/><path d="M26.69,44.5a2.44,2.44,0,1,0,2.45,2.44A2.44,2.44,0,0,0,26.69,44.5Z" style="fill:#bfcca0"/><path d="M46.74,44.5a2.44,2.44,0,1,0,2.45,2.44A2.44,2.44,0,0,0,46.74,44.5Z" style="fill:#bfcca0"/><path d="M87,26.33a12,12,0,0,1,.09,1.85V56.63s-.09,2.58-2.25,2.58-2-2.58-2-2.58V28.92A12.74,12.74,0,0,0,82,26.3H22.28a7.07,7.07,0,0,0-7.06,7.06v39a8.22,8.22,0,0,0,.84.42,12.35,12.35,0,0,0,3.38.8H75.23c.77,0,1.92.39,1.92,2.21S75,77.67,75,77.67H17.29a9.8,9.8,0,0,1-1.93-.25,7.1,7.1,0,0,0,6.92,5.65H86.33A7.08,7.08,0,0,0,93.39,76V33.36A7.09,7.09,0,0,0,87,26.33Zm-60.31,27a6.36,6.36,0,1,1,6.36-6.36A6.35,6.35,0,0,1,26.69,53.3Zm20.05,0a6.36,6.36,0,1,1,6.36-6.36A6.36,6.36,0,0,1,46.74,53.3Zm20.12,0a6.36,6.36,0,1,1,6.36-6.36A6.35,6.35,0,0,1,66.86,53.3Z" style="fill:#bfcca0"/><path d="M66.86,44.5a2.44,2.44,0,1,0,2.45,2.44A2.44,2.44,0,0,0,66.86,44.5Z" style="fill:#bfcca0"/><path d="M75,77.67s2.11-.09,2.11-1.92S76,73.54,75.23,73.54H19.44a12.35,12.35,0,0,1-3.38-.8,8.22,8.22,0,0,1-.84-.42,10.4,10.4,0,0,1-2.64-2c-2.3-2.5-2.21-4.62-2.21-6.83V29.36s.31-3.6,2.5-5.52,4.25-3.05,6.84-3.05H73.22a12.76,12.76,0,0,1,3.32.61,10.27,10.27,0,0,1,3.54,2.23A8.52,8.52,0,0,1,82,26.3a12.74,12.74,0,0,1,.91,2.62V56.63s-.17,2.58,2,2.58,2.25-2.58,2.25-2.58V28.18a12.4,12.4,0,0,0-.76-4.61A10.43,10.43,0,0,0,84,20.18a11.11,11.11,0,0,0-8.46-3.25H16.82A10.63,10.63,0,0,0,11.14,19a9.32,9.32,0,0,0-3.66,4.53,10.45,10.45,0,0,0-.87,3V67a9.06,9.06,0,0,0,2.32,6.52,11.06,11.06,0,0,0,3.41,2.86,12.93,12.93,0,0,0,3,1.07,9.8,9.8,0,0,0,1.93.25Z" style="fill:#463d32"/><path d="M26.69,40.58a6.36,6.36,0,1,0,6.36,6.36A6.35,6.35,0,0,0,26.69,40.58Zm0,8.8a2.44,2.44,0,1,1,2.45-2.44A2.44,2.44,0,0,1,26.69,49.38Z" style="fill:#463d32"/><path d="M46.74,40.58a6.36,6.36,0,1,0,6.36,6.36A6.36,6.36,0,0,0,46.74,40.58Zm0,8.8a2.44,2.44,0,1,1,2.45-2.44A2.44,2.44,0,0,1,46.74,49.38Z" style="fill:#463d32"/><path d="M66.86,40.58a6.36,6.36,0,1,0,6.36,6.36A6.35,6.35,0,0,0,66.86,40.58Zm0,8.8a2.44,2.44,0,1,1,2.45-2.44A2.44,2.44,0,0,1,66.86,49.38Z" style="fill:#463d32"/></svg>