<?xml version="1.0" encoding="UTF-8"?>
<svg width="102px" height="108px" viewBox="0 0 102 108" version="1.1" xmlns="http://www.w3.org/2000/svg" xmlns:xlink="http://www.w3.org/1999/xlink">
    <title>Logo</title>
    <g id="Logo" stroke="none" stroke-width="1" fill="none" fill-rule="evenodd">
        <path d="M22.2460938,75.4431061 L22.2460937,29.1288562 C22.3488325,28.4785717 22.4611607,28.0213184 22.5830783,27.7570964 C23.4690248,25.837057 24.5431665,24.6531317 25.3753403,24.0019997 C26.8234138,22.8689589 28.667727,22.0563 31,22.0563 C33.4300384,22.0563 35.3832101,22.7719771 36.896166,24.0019997 C37.7145234,24.6673186 38.8378608,25.7666745 39.7544492,27.7570964 C39.8648068,27.9967441 39.9466571,28.4539974 40,29.1288562 L40,76.1944909 C40.3526566,82.5569752 41.4128236,87.5371635 43.180501,91.1350556 C45.8320172,96.5318938 50.3689228,101.587929 56.1844614,104.798682 C62,108.009436 68.716967,108.555013 75.0960121,107.532867 C81.4750573,106.510721 86.9400367,104.190338 92.9302333,98.1606482 C95.1313068,95.9450631 97.881687,91.9417222 100.924598,85.5137764 C101.324055,84.6699494 101.682523,83.1641789 102,80.9964651 L102,29.1288562 C99.0260914,32.8436 95.3594247,34.7009718 91,34.7009718 C86.6405753,34.7009718 82.9739086,32.8436 80,29.1288562 L80,76.1944909 C79.9138743,77.4331377 79.7878665,78.3122861 79.6219765,78.831936 C78.9243084,81.0173791 77.8711592,82.478514 77.215539,83.2884374 C75.6808992,85.1842614 73.6090529,86.1321734 71,86.1321734 C68.2475601,86.1321734 65.9188464,85.1096462 64.3621588,82.9997167 C63.9383155,82.4252408 63.1083595,81.1310151 62.6597396,79.9006932 C62.3934821,79.1704929 62.1735689,77.9350921 62,76.1944909 L62,29.1288562 C61.9877577,26.7776911 61.8454822,25.0687389 61.5731734,24.0019997 C59.7338169,16.7965263 56.2673496,11.4911013 52.4831742,7.97908631 C45.5463919,1.54120197 37.6240883,0 31,0 C24.3759117,0 19.0017539,1.84225072 11.2316818,7.97908631 C6.98371684,11.3341469 3.23127802,16.6674699 0.914949146,24.0019997 C0.576118541,25.0748885 0.271135492,26.7838407 0,29.1288562 L0.029296875,93.2379954 L22.2460938,75.4431061 Z" id="N" fill="#323232" fill-rule="nonzero"></path>
        <circle id="Oval" fill="#323232" cx="91" cy="11" r="11"></circle>
    </g>
</svg>