<svg id="Layer_1" data-name="Layer 1" xmlns="http://www.w3.org/2000/svg" viewBox="0 0 100 100"><path d="M30.1,32.4s.3-19.5,23.8-19.5S76.8,32.4,76.8,32.4s16.3,2,16.3,17.6S83.4,70.3,78.8,71.1a13.5,13.5,0,0,1-8-1A34.85,34.85,0,0,1,68,72.3c-.7.5-1.8,1.1-1.8,1.1s-.8,5.7-5.3,8.5-5.8,2-5.8,2v5.3s.3,1.2-1.5,1.2-1.5-1.2-1.5-1.2V83.8a11.18,11.18,0,0,1-5.7-2.1,18.68,18.68,0,0,1-4.7-5.5c-.4-1.2-.8-2.8-.8-2.8s-2.6-1.7-2.9-2S36.4,70,36.4,70,28,74.6,18.8,65.4s-4.3-23.9.9-28.4,8.7-4.6,8.7-4.6Z" style="fill:#dfdfdf;fill-rule:evenodd"/><path d="M86.1,46.1C84,29.2,69.9,28.9,69.9,28.9s.9-6.3-6.1-13.1S46.5,9.4,46.5,9.4s-7.6,0-13.7,3.7c-9.6,5.1-9.6,15.8-9.6,15.8s-2-.3-6.3,1.6-9,9-9.7,14.2a21.86,21.86,0,0,0,6.7,19.6c7,6.5,15.4,2.4,15.4,2.4a25.5,25.5,0,0,0,3.2,3c.3.2.8.6,1.5,1a10.38,10.38,0,0,0,.3,1.2,12.26,12.26,0,0,0,4.1,5.7A13.13,13.13,0,0,0,45,80.4v7.2s0,1.1,1.5,1.1A1.4,1.4,0,0,0,48,87.3V80.5a17.83,17.83,0,0,0,2.2-.4c.6-.1,2.1-.2,5.5-3.2,2.6-2.3,3.2-5.7,3.4-7.2a21.52,21.52,0,0,0,4.5-3.2,15.22,15.22,0,0,0,6.9,1.2C75.7,67.8,87.4,62,86.1,46.1ZM46.9,76.8c-5.7.1-7.8-3.8-8-4.2a31,31,0,0,0,7.6.8H47a24.08,24.08,0,0,0,7.6-1.3A8,8,0,0,1,46.9,76.8ZM61.5,61.9a5.67,5.67,0,0,1-.8,1.3,1.38,1.38,0,0,0-.3.4,13.2,13.2,0,0,1-5.4,4,26.33,26.33,0,0,1-8.2,1.6,26.67,26.67,0,0,1-13.4-4,7.27,7.27,0,0,1-.9-.8c-1.2-1.3-1.6-3.1-2.2-4.8a43.52,43.52,0,0,1-1.2-6.3s3.5.5,5.4,1,5.3,1.6,5.3,1.6S45.2,44.7,47,44.7c.9,0,3,3.1,4.2,6.1a24.78,24.78,0,0,1,1.5,5.1l11.1-2.1A28.69,28.69,0,0,1,61.5,61.9Zm18.3-4a13.32,13.32,0,0,1-9.5,6.2,15.89,15.89,0,0,1-5.1-.8,37,37,0,0,0,1.3-4c.7-2.8,2.3-6.2-.1-8.6s-10.7.6-10.7.6S51.4,40.8,47,40.8s-9.1,10.4-9.1,10.4-2.8-.8-4.2-1.1-5.6-1.2-7.1,0-1.2,3-.6,7.1a27.46,27.46,0,0,0,1.8,6.3c-.4.1-.9.3-1.3.4a10.9,10.9,0,0,1-10.1-2.5c-6.5-5.9-6-12.4-5.4-17A14,14,0,0,1,18.7,34,17.49,17.49,0,0,1,27,32.7a16.82,16.82,0,0,1,1.2-8.9,15.51,15.51,0,0,1,5.4-6.6,22.32,22.32,0,0,1,6.3-3,24.61,24.61,0,0,1,6.6-.9,20.58,20.58,0,0,1,7.7,1.2A19.34,19.34,0,0,1,61.6,19a15.58,15.58,0,0,1,4.2,7.5,48.67,48.67,0,0,1,.2,6.1,14.09,14.09,0,0,1,11.1,3.1,15.58,15.58,0,0,1,5.1,9.8A18.35,18.35,0,0,1,79.8,57.9Z" style="fill:#483c30;fill-rule:evenodd"/><path d="M72.3,36.9c1.2.3,4.4.6,6.4,5.8a15,15,0,0,1,.6,9.9c-.3,1.6-1.7,3.8-2.8,3.3s-.8-1.9-.2-3.7,1-5.5.4-7.2-1.2-3.7-3.4-4.9-3.5-1.6-2.9-2.6A1.94,1.94,0,0,1,72.3,36.9Z" style="fill:#483c30;fill-rule:evenodd"/></svg>