<svg xmlns="http://www.w3.org/2000/svg" viewBox="0 0 100 100"><g id="Layer_3" data-name="Layer 3"><path d="M69.28,40.33A2.63,2.63,0,0,0,66.65,43V55.82A2.3,2.3,0,0,1,66,57.47a2.35,2.35,0,0,1-1.78.74H37.72a5.29,5.29,0,0,1-2.19-.38,4.33,4.33,0,0,1-1-1.51L26,30.06a2.63,2.63,0,0,0-5,1.63l9.57,29.42a2.91,2.91,0,0,0,.22.51,2.65,2.65,0,0,0,2.51,1.86h36a2.64,2.64,0,0,0,2.63-2.64V43A2.64,2.64,0,0,0,69.28,40.33Z" style="fill:#fbf8f1"/><circle cx="37.78" cy="70.96" r="4.64" style="fill:#fbf8f1"/><circle cx="63.22" cy="70.96" r="4.64" style="fill:#fbf8f1"/></g></svg>