<svg xmlns="http://www.w3.org/2000/svg" viewBox="0 0 100 100"><g id="shade"><path d="M30.12,32.38S30.41,12.9,53.9,12.9,76.82,32.38,76.82,32.38s16.26,2,16.26,17.62-9.7,20.31-14.31,21.15a13.61,13.61,0,0,1-8-1S68.62,72,67.92,72.43s-1.79,1.11-1.79,1.11-.84,5.7-5.3,8.52-5.84,2-5.84,2v5.26s.29,1.23-1.52,1.23-1.53-1.23-1.53-1.23L52,84a11,11,0,0,1-5.7-2.13c-2.31-1.94-4.24-4.25-4.69-5.5s-.84-2.75-.84-2.75-2.6-1.73-2.94-2S36.2,70.2,36.2,70.2s-8.4,4.57-17.57-4.61-4.26-23.91.87-28.4,8.68-4.62,8.68-4.62Z" style="fill:#a0c2ae;fill-rule:evenodd"/></g><g id="cotton"><path d="M86.14,46.09C84,29.18,69.91,28.93,69.91,28.93s.87-6.28-6.08-13.11S46.56,9.44,46.56,9.44s-7.58,0-13.74,3.74c-9.59,5.11-9.61,15.75-9.61,15.75s-2-.34-6.33,1.64-9,9-9.71,14.17A21.62,21.62,0,0,0,13.92,64.3c7,6.54,15.42,2.43,15.42,2.43a24.4,24.4,0,0,0,3.23,3c.32.21.81.57,1.51,1,.09.46.19.92.27,1.19a12.12,12.12,0,0,0,4.09,5.75A13.22,13.22,0,0,0,45,80.52l0,7.18s0,1.13,1.49,1.13a1.49,1.49,0,0,0,1.53-1.44V80.61s1.6-.23,2.23-.38,2.06-.18,5.49-3.16a11.21,11.21,0,0,0,3.4-7.18,19.64,19.64,0,0,0,4.5-3.19,15.46,15.46,0,0,0,6.89,1.2C75.69,67.81,87.43,62,86.14,46.09ZM47,76.82c-5.68.05-7.79-3.76-8-4.22a32.61,32.61,0,0,0,7.63.81h.55a22.58,22.58,0,0,0,7.56-1.34A8.23,8.23,0,0,1,47,76.82ZM61.45,61.9a10.48,10.48,0,0,1-.82,1.3l-.26.37a13.6,13.6,0,0,1-5.36,4,24.63,24.63,0,0,1-8.17,1.56,26.63,26.63,0,0,1-13.45-4,9,9,0,0,1-.89-.79c-1.18-1.3-1.59-3.12-2.19-4.84a40,40,0,0,1-1.19-6.28,42.54,42.54,0,0,1,5.39,1.05l5.32,1.65S45.27,44.6,47,44.6c.92,0,3,3.12,4.24,6.08a23.3,23.3,0,0,1,1.48,5.09l11.08-2.11A27.62,27.62,0,0,1,61.45,61.9Zm18.36-4a13.09,13.09,0,0,1-9.51,6.19,15.74,15.74,0,0,1-5.08-.82,36.28,36.28,0,0,0,1.3-4c.71-2.85,2.32-6.18-.13-8.63s-10.74.63-10.74.63-4.33-10.51-8.72-10.51-9.09,10.42-9.09,10.42-2.76-.77-4.23-1.13S28,48.79,26.47,50s-1.24,3-.65,7.06a24.44,24.44,0,0,0,1.82,6.27,12.2,12.2,0,0,1-1.33.4,10.72,10.72,0,0,1-10.06-2.47C9.94,55.46,10.35,49,11,44.36A13.94,13.94,0,0,1,18.74,34a18,18,0,0,1,8.34-1.26,17.26,17.26,0,0,1,1.19-8.94,15.09,15.09,0,0,1,5.42-6.56,24.52,24.52,0,0,1,6.3-3,23.87,23.87,0,0,1,6.57-.9,20.46,20.46,0,0,1,7.65,1.23,19.24,19.24,0,0,1,7.45,4.51,16.24,16.24,0,0,1,4.21,7.52,42.88,42.88,0,0,1,.18,6.13,14.13,14.13,0,0,1,11.06,3.11,15.61,15.61,0,0,1,5.09,9.85A17.7,17.7,0,0,1,79.81,57.89Z" style="fill:#483c30;fill-rule:evenodd"/></g><g id="Layer_5" data-name="Layer 5"><path d="M72.27,36.91c1.16.31,4.36.57,6.43,5.85a14.82,14.82,0,0,1,.63,9.94c-.28,1.57-1.7,3.79-2.8,3.33s-.83-1.9-.22-3.71,1-5.49.37-7.16-1.24-3.72-3.37-4.93-3.51-1.55-2.86-2.61A1.63,1.63,0,0,1,72.27,36.91Z" style="fill:#483c30;fill-rule:evenodd"/></g></svg>