<svg id="Layer_1" data-name="Layer 1" xmlns="http://www.w3.org/2000/svg" viewBox="0 0 100 100"><path d="M56.71,75.29l-.39-.06Z" style="fill:none"/><path d="M58,75.38c-.28,0-.55,0-.83,0C57.42,75.36,57.69,75.38,58,75.38Z" style="fill:none"/><path d="M58,75.38h0A10.36,10.36,0,0,0,68.42,65h0A10.39,10.39,0,0,1,58,75.38Z" style="fill:none"/><path d="M33.76,28.61c-2-2.65-3.31-4.34-3.31-4.34S11.86,46.81,11.86,57.07a20,20,0,0,0,7.88,15.76,21.8,21.8,0,0,1-3.27-11.51C16.47,52.8,27.36,37.1,33.76,28.61Z" style="fill:none"/><path d="M80.5,34.71a5,5,0,0,0-8.25,3.73,5,5,0,0,0,2.8,4.46v0A8.81,8.81,0,0,1,80.5,34.71Z" style="fill:none"/><path d="M16.47,61.32a21.8,21.8,0,0,0,3.27,11.51,17.67,17.67,0,0,0,10.71,3.7,18.45,18.45,0,0,0,14-6.52,14.71,14.71,0,0,1-1-5.25A14.47,14.47,0,0,1,48.39,53.9C46.11,46,38.29,34.73,33.76,28.61,27.36,37.1,16.47,52.8,16.47,61.32Z" style="fill:#e0dfdf"/><path d="M56.78,50.27C50.67,37.74,38.3,22.81,38.3,22.81s-.68.82-1.79,2.22c5.34,7.19,12.7,18,15.7,26.4A14.57,14.57,0,0,1,56.78,50.27Z" style="fill:#e0dfdf"/><path d="M47,74.18a23,23,0,0,1-16.51,7c-.45,0-.89,0-1.33,0A21.75,21.75,0,0,0,52.23,78.1,14.51,14.51,0,0,1,47,74.18Z" style="fill:#e0dfdf"/><path d="M47,74.18A14.86,14.86,0,0,1,44.48,70a18.45,18.45,0,0,1-14,6.52,17.67,17.67,0,0,1-10.71-3.7,20,20,0,0,1-7.88-15.76c0-10.26,18.59-32.8,18.59-32.8S31.8,26,33.76,28.61C38.29,34.73,46.11,46,48.39,53.9a14.64,14.64,0,0,1,3.82-2.47C49.21,43,41.85,32.22,36.51,25c-3.46-4.65-6.06-7.8-6.06-7.8S7.32,45.26,7.32,58a23.16,23.16,0,0,0,21.8,23.12c.44,0,.88,0,1.33,0A23,23,0,0,0,47,74.18Z" style="fill:#483c30"/><path d="M58.05,50.21c-.42,0-.85,0-1.27.06A14.55,14.55,0,0,0,44.48,70,14.86,14.86,0,0,0,47,74.18a14.55,14.55,0,1,0,11.09-24ZM68.42,65A10.36,10.36,0,0,1,58.05,75.38H58c-.28,0-.55,0-.83,0l-.43,0-.39-.06A10.38,10.38,0,1,1,68.42,65h0Z" style="fill:#483c30"/><path d="M85.2,34.15a9.08,9.08,0,0,1-8.07,13.26c-.28,0-.56,0-.83,0a8.81,8.81,0,1,0,8.9-13.22Z" style="fill:#e0dfdf"/><path d="M82.21,38.44a5,5,0,0,0-1.71-3.73,8.81,8.81,0,0,0-5.45,8.15v0a5,5,0,0,0,7.16-4.46Z" style="fill:#e0dfdf"/><path d="M86.22,38.32a9.09,9.09,0,1,0-9.92,9c.27,0,.55,0,.83,0A9.09,9.09,0,0,0,86.22,38.32ZM75.05,42.9a5,5,0,0,1,2.18-9.44,5,5,0,1,1-2.18,9.44Z" style="fill:#483c30"/><path d="M58,54.61a10.38,10.38,0,0,0-1.71,20.62l.39.06.43,0c.28,0,.55,0,.83,0H58A10.39,10.39,0,0,0,68.42,65h0A10.39,10.39,0,0,0,58,54.61Z" style="fill:#fcf9f4"/></svg>