<svg id="Layer_1" data-name="Layer 1" xmlns="http://www.w3.org/2000/svg" viewBox="0 0 100 100"><path d="M35.8,27.6c.87-.49,2.2-1.46,3.37-1.33a4.46,4.46,0,0,1,2.94,1c.78.78,6.78,5.09,8.74,5.61a43.55,43.55,0,0,0,9.26.52c1.15-.07,2.91-.14,4.3-.19,1-1,2.2-2.46,2.11-2.81s-1.59-.3-1.59-.3a58.79,58.79,0,0,1-7.1,0A23.76,23.76,0,0,1,50.47,28c-1.16-.62-11.45-6.72-12.1-6.72a6.37,6.37,0,0,0-2.06.9s-6.83,3.68-13.12,7.13C17.86,32.25,12.86,34,12.86,35.2c0,.56,1.7,1.56,3.64,2.53,3.59-1.92,7.26-3.67,7.26-3.67S34.93,28.1,35.8,27.6Z" style="fill:none"/><path d="M77.3,58.76c1-1,1.75-1.8,2.1-2.16,1.1-1.14,2.67-2.89,2-3.22s-4.14.39-6.42.49a25.51,25.51,0,0,1-5.37-.62c-.59-.06-.78.65-1,.85l-2.41,1.95s-1.22.8-2.51,1.62c2.13.27,6.68.81,8.59.85C73.85,58.55,75.62,58.67,77.3,58.76Z" style="fill:none"/><path d="M69.86,46.53c2.46-2.42,4.19-4.92,3.89-5.09s-3.37.09-6.07.05A36.21,36.21,0,0,1,62.5,41c-.49-.07-.89.57-1.69,1.48a45.43,45.43,0,0,1-4.64,3.57,33.42,33.42,0,0,0,4.27.78C62,47,66.6,46.74,69.86,46.53Z" style="fill:none"/><path d="M47.25,59.83a59.8,59.8,0,0,0,11.83-4.08c4-2,7.23-5.94,10.07-8.54l.71-.68c-3.26.21-7.88.47-9.42.33a33.42,33.42,0,0,1-4.27-.78c-1.22.85-2.35,1.6-3,1.94a57.24,57.24,0,0,1-7.53,3.15c-1.75.56-7.28,2.3-8.52,2.22a5,5,0,0,1-2.3-.9s-9.58-5.4-10.39-5.92-2-1.32-2.38-1.1-1.49.72-1.49,1,2.29,1.25,2.29,1.25,12.91,6.7,14.71,7.67S46.3,59.9,47.25,59.83Z" style="fill:#dfdfdf"/><path d="M37.72,49.1c.45.07,1.1-.26,4.15-1.3S50,45.23,54,42.55s8.68-7.88,9.8-8.81c.19-.15.39-.35.6-.55-1.39.05-3.15.12-4.3.19a43.55,43.55,0,0,1-9.26-.52c-2-.52-8-4.83-8.74-5.61a4.46,4.46,0,0,0-2.94-1c-1.17-.13-2.5.84-3.37,1.33s-12,6.46-12,6.46-3.67,1.75-7.26,3.67c2.28,1.15,4.91,2.26,5.58,2.61C23.31,41,37.26,49,37.72,49.1Z" style="fill:#dfdfdf"/><path d="M18,42.86,12.58,40c-1.62,1-2.8,1.87-2.92,2.36-.41,1.72,1.78,2.55,3.2,3.26.71.35,2,.89,3.21,1.35a5,5,0,0,1,0-.69C16.18,43.53,18,42.86,18,42.86Z" style="fill:#dfdfdf"/><path d="M52.29,72.31c1.23.59,2.1.19,5-.65a56,56,0,0,0,12.49-6,78.42,78.42,0,0,0,7.57-6.95c-1.68-.09-3.45-.21-5-.24-1.91,0-6.46-.58-8.59-.85-.83.53-1.69,1.07-2.28,1.41a72.69,72.69,0,0,1-8.16,3.84,25.62,25.62,0,0,1-7,1.33c-1.31,0-4.36-1.58-4.36-1.58s-8.62-4.52-9.3-5-2.15-1.24-2.49-1a15.68,15.68,0,0,0-1.64,1.19c-.66.55.24.84.24.84s4.56,2.76,6.15,3.53S51.06,71.72,52.29,72.31Z" style="fill:#dfdfdf"/><path d="M25.77,54.1l-7.64-4.05a4.5,4.5,0,0,1-.95-.75,22,22,0,0,0-2.54,4.27c-.17,1.07.78,1.72,2.08,2.38.89.44,4.69,2,7,3.13a1.86,1.86,0,0,1-.07-.34A5.73,5.73,0,0,1,25.77,54.1Z" style="fill:#dfdfdf"/><path d="M91.58,58.85c-.49-1-2-.93-2-.93s-3.31.44-6.14.71a102.67,102.67,0,0,1-12.1,11.13c-2.4,1.72-11.69,5.91-15.59,6.81S52,76.87,50,76,29.22,64.06,29.22,64.06a17.37,17.37,0,0,1-4.11-2.72c-.42,1.58-1.15,4.47-.92,6.35.3,2.43,6.82,4.86,8.6,5.63s19.69,9.75,21.41,9.75,6.23-1.5,8.42-2.22S76.14,75.4,79,74,82.9,70.77,87.35,66,92.06,59.89,91.58,58.85Z" style="fill:#dfdfdf"/><path d="M50,76c2,.9,1.85,1.5,5.74.6s13.19-5.09,15.59-6.81a102.67,102.67,0,0,0,12.1-11.13l0,0c3.3-3.74,2.85-7.12,2.78-7.57s-1.2-2.39-4.95-1.94a71.16,71.16,0,0,1-8.24.37,42.71,42.71,0,0,0,3.82-4.27,8.45,8.45,0,0,0,1.35-6.44c-.37-1.73-3.3-1.5-4.2-1.58s-7.86,0-7.86,0a24.45,24.45,0,0,0,3.59-3.67,6.26,6.26,0,0,0,1.13-6.07c-.45-1.34-2.4-1.49-3.45-1.49s-9.66.52-11.76-.38-9.07-4.64-10-5.09-5.54-3.75-7.41-3.75-4.49,2.15-4.49,2.15-16.12,8.56-18.51,9.76-6.3,2.7-7,5.32S10,38.59,10,38.59L12.58,40,18,42.86s-1.8.67-1.95,3.37a5,5,0,0,0,0,.69,3.91,3.91,0,0,0,1.11,2.38,4.5,4.5,0,0,0,.95.75l7.64,4.05a5.73,5.73,0,0,0-2.17,4.64,1.86,1.86,0,0,0,.07.34,4.72,4.72,0,0,0,1.44,2.26,17.37,17.37,0,0,0,4.11,2.72S48,75.07,50,76ZM16.5,37.73c-1.94-1-3.64-2-3.64-2.53,0-1.22,5-3,10.33-5.88,6.29-3.45,13.12-7.13,13.12-7.13a6.37,6.37,0,0,1,2.06-.9c.65,0,10.94,6.1,12.1,6.72a23.76,23.76,0,0,0,7.36,2.07,58.79,58.79,0,0,0,7.1,0s1.48-.12,1.59.3-1.07,1.8-2.11,2.81c-.21.2-.41.4-.6.55-1.12.93-5.79,6.13-9.8,8.81s-9.09,4.22-12.14,5.25-3.7,1.37-4.15,1.3S23.31,41,22.08,40.34C21.41,40,18.78,38.88,16.5,37.73Zm6.39,10s-2.29-1-2.29-1.25,1.15-.81,1.49-1,1.58.59,2.38,1.1,10.39,5.92,10.39,5.92a5,5,0,0,0,2.3.9c1.24.08,6.77-1.66,8.52-2.22A57.24,57.24,0,0,0,53.21,48c.61-.34,1.74-1.09,3-1.94a45.43,45.43,0,0,0,4.64-3.57C61.61,41.6,62,41,62.5,41a36.21,36.21,0,0,0,5.18.46c2.7,0,5.75-.23,6.07-.05s-1.43,2.67-3.89,5.09l-.71.68c-2.84,2.6-6.06,6.54-10.07,8.54a59.8,59.8,0,0,1-11.83,4.08c-1,.07-7.85-3.46-9.65-4.42S22.89,47.74,22.89,47.74Zm5.56,10.12a15.68,15.68,0,0,1,1.64-1.19c.34-.24,1.8.52,2.49,1s9.3,5,9.3,5,3,1.62,4.36,1.58a25.62,25.62,0,0,0,7-1.33,72.69,72.69,0,0,0,8.16-3.84c.59-.34,1.45-.88,2.28-1.41,1.29-.82,2.51-1.62,2.51-1.62l2.41-1.95c.23-.2.42-.91,1-.85a25.51,25.51,0,0,0,5.37.62c2.28-.1,5.76-.81,6.42-.49s-.92,2.08-2,3.22c-.35.36-1.11,1.16-2.1,2.16a78.42,78.42,0,0,1-7.57,6.95,56,56,0,0,1-12.49,6c-2.85.84-3.72,1.24-5,.65S36.43,63,34.84,62.23s-6.15-3.53-6.15-3.53S27.79,58.41,28.45,57.86Z" style="fill:#483c30"/></svg>