<svg xmlns="http://www.w3.org/2000/svg" viewBox="0 0 100 100" class="icon"><defs><style>.stroke-thick-center{fill:none;stroke:#000;stroke-miterlimit:10;stroke-width:10px;}</style></defs><title>microphone</title><path d="M50,20a5,5,0,0,1,5,5V50a5,5,0,0,1-10,0V25a5,5,0,0,1,5-5m0-10A15,15,0,0,0,35,25V50a15,15,0,0,0,30,0V25A15,15,0,0,0,50,10Z"></path><polygon points="55 75 45 75 45 90 55 90 55 75 55 75"></polygon><path class="stroke-thick-center" d="M75,50A25,25,0,0,1,50,75h0A25,25,0,0,1,25,50"></path></svg>